<svg version="1.1" id="Camada_1" xmlns="http://www.w3.org/2000/svg" xmlns:xlink="http://www.w3.org/1999/xlink" x="0px" y="0px" viewBox="0 0 263.2 263.2" style="enable-background:new 0 0 263.2 263.2;" xml:space="preserve">
<style type="text/css">
	.st0{opacity:0.2;fill:#FFFFFF;}
	.st1{opacity:0.7;fill:#FFFFFF;}
	.st2{opacity:0.4;fill:#FFFFFF;}
	.st3{fill:none;stroke:#FFFFFF;stroke-width:12;stroke-miterlimit:10;}
</style>
<rect id="XMLID_30_" x="6.1" y="6.1" class="st0" width="62.8" height="62.8"/>
<rect id="XMLID_14_" x="6.1" y="68.8" class="st1" width="62.8" height="62.8"/>
<rect id="XMLID_28_" x="6.1" y="131.6" class="st2" width="62.8" height="62.8"/>
<rect id="XMLID_29_" x="68.8" y="68.8" class="st0" width="62.8" height="62.8"/>
<rect id="XMLID_31_" x="68.8" y="131.6" class="st1" width="62.8" height="62.8"/>
<rect id="XMLID_32_" x="68.8" y="194.4" class="st0" width="62.8" height="62.8"/>
<rect id="XMLID_33_" x="131.6" y="6.1" class="st1" width="62.8" height="62.8"/>
<rect id="XMLID_35_" x="131.6" y="68.8" class="st2" width="62.8" height="62.8"/>
<rect id="XMLID_34_" x="131.6" y="194.4" class="st2" width="62.8" height="62.8"/>
<rect id="XMLID_37_" x="194.4" y="6.1" class="st2" width="62.8" height="62.8"/>
<rect id="XMLID_36_" x="194.4" y="194.4" class="st0" width="62.8" height="62.8"/>
<rect id="XMLID_38_" x="194.4" y="131.6" class="st2" width="62.8" height="62.8"/>
<path id="Frame" class="st3" d="M245.1,257.1H18.1c-6.6,0-12-5.4-12-12V18.1c0-6.6,5.4-12,12-12h227.1c6.6,0,12,5.4,12,12v227.1 C257.1,251.7,251.7,257.1,245.1,257.1z"/>
</svg>
