<?xml version="1.0" encoding="utf-8"?>
<svg xmlns="http://www.w3.org/2000/svg" viewBox="0 0 30 30">
<path d="M22.1 16.6L21 16c.1-.3.1-.6.1-1s0-.7-.1-1l1.2-.7c.4-.2.5-.7.3-1L21 9.9c-.2-.4-.7-.5-1-.3l-1.2.7c-.5-.4-1.1-.7-1.7-1V8c0-.4-.3-.7-.7-.7h-2.8c-.4 0-.7.3-.7.7v1.3c-.6.2-1.2.6-1.7 1L10 9.6c-.3-.2-.8 0-1 .3l-1.4 2.4c-.2.4-.1.8.3 1L9 14v1c0 .3 0 .7.1 1l-1.2.7c-.4.2-.5.7-.3 1L9 20.1c.2.4.7.5 1 .3l1.2-.7c.5.4 1.1.7 1.7 1V22c0 .4.3.7.7.7h2.8c.4 0 .7-.3.7-.7v-1.3c.6-.2 1.2-.6 1.7-1l1.2.7c.4.2.8.1 1-.3l1.4-2.4c.2-.4.1-.9-.3-1.1zM15 18.3c-1.8 0-3.3-1.5-3.3-3.2s1.5-3.3 3.3-3.3 3.3 1.5 3.3 3.3-1.5 3.2-3.3 3.2z"/>
</svg>
