<?xml version="1.0" encoding="utf-8"?>
<svg version="1.1" id="Camada_1" xmlns="http://www.w3.org/2000/svg" xmlns:xlink="http://www.w3.org/1999/xlink" x="0px" y="0px" viewBox="0 0 75.7 75.7" xml:space="preserve" fill="#FFF">
<path d="M34.6,47.7c-0.5-12.7,3-22.8,10.4-30.2c1.7-1.7,3.6-3.3,5.7-4.7c2.1-1.4,4.4-2.5,6.9-3.5c2.5-1,5.3-1.7,8.3-2.1 c3-0.5,6.3-0.6,9.8-0.5l0,4.4C64.6,11,55.8,14.3,49.1,21c-3.3,3.3-5.8,7.2-7.5,11.7c-1.7,4.5-2.5,9.4-2.5,14.9L34.6,47.7z"/>
<path d="M54.1,28c0.5,12.7-3,22.8-10.5,30.3c-1.5,1.5-3.3,3-5.3,4.3c-2,1.3-4.2,2.5-6.7,3.5c-2.5,1-5.3,1.7-8.4,2.2 c-3.1,0.5-6.5,0.7-10.2,0.5l0-4.4c5.6,0,10.5-0.8,14.9-2.4c4.4-1.6,8.2-4.1,11.5-7.4c6.8-6.8,10.2-15.7,10.1-26.7L54.1,28z"/>
<path d="M32,16.7l-4.4,30.5h-6.4l-4.4-12.8l-0.9-3.1l-1,3.3l-4.2,12.6H4.4L0,16.7h5.2l2.6,20.7L8.3,42l1.3-4L14,24.3h3.8l4.8,13.5 l1.4,4l0.5-4.3l2.4-20.9H32z"/>
<path d="M57.3,64c1,0,2-0.1,3-0.3c1-0.2,1.8-0.6,2.6-1c0.7-0.4,1.3-1,1.8-1.6c0.4-0.6,0.7-1.4,0.7-2.2c0-0.9-0.1-1.5-0.4-2.1 c-0.3-0.5-0.6-1-1-1.5c-0.4-0.4-0.7-0.9-1-1.4c-0.3-0.5-0.4-1.2-0.4-2c0-0.4,0.1-0.9,0.2-1.3s0.4-0.9,0.7-1.3 c0.3-0.4,0.8-0.7,1.3-0.9s1.1-0.4,1.8-0.4s1.4,0.1,2.1,0.4c0.7,0.3,1.2,0.7,1.7,1.4c0.5,0.6,0.9,1.4,1.2,2.3c0.3,0.9,0.4,2,0.4,3.2 c0,1.7-0.3,3.3-0.9,4.8c-0.6,1.5-1.5,2.9-2.8,4.1c-1.2,1.2-2.8,2.1-4.6,2.9c-1.8,0.7-4,1.1-6.4,1.1V64z M66.8,26.6 c0.6,0,1.2,0.1,1.8,0.4c0.6,0.3,1.1,0.6,1.5,1c0.4,0.4,0.8,0.9,1,1.5c0.3,0.6,0.4,1.2,0.4,1.8c0,0.6-0.1,1.3-0.4,1.8 c-0.3,0.6-0.6,1-1,1.5c-0.4,0.4-0.9,0.8-1.5,1S67.4,36,66.8,36c-0.6,0-1.3-0.1-1.8-0.4s-1-0.6-1.5-1c-0.4-0.4-0.8-0.9-1-1.5 c-0.2-0.6-0.4-1.2-0.4-1.8c0-0.6,0.1-1.2,0.4-1.8c0.2-0.6,0.6-1.1,1-1.5c0.4-0.4,0.9-0.8,1.5-1C65.6,26.8,66.2,26.6,66.8,26.6z"/>
</svg>
